<svg width="147" height="152" viewBox="0 0 147 152" xmlns="http://www.w3.org/2000/svg">
    <defs>
        <linearGradient id="logo-gradient" x1="0%" y1="0%" x2="100%" y2="0%">
            <stop offset="0%" stop-color="#ff5f5f">
                <animate attributeName="stop-color"
                    values="#ff5f5f; #ffcf5f; #acff5f; #5fff9c; #5fcfff; #5f6aff; #d45fff; #ff5fcc; #ff5f5f;" dur="4s"
                    repeatCount="indefinite" />
            </stop>

            <stop offset="100%" stop-color="#ffcf5f">
                <animate attributeName="stop-color"
                    values="#ffcf5f; #acff5f; #5fff9c; #5fcfff; #5f6aff; #d45fff; #ff5fcc; #ff5f5f; #ffcf5f;" dur="4s"
                    repeatCount="indefinite" />
            </stop>
        </linearGradient>
    </defs>
    <g fill="url(#logo-gradient)">
        <path
            d="M40.0 1.5L11.1 30.4L12.0 31.3L40.9 2.5ZM43.9 5.3L48.8 5.3L48.8 28.6L43.9 28.6L43.9 5.3ZM59.4 30.4L61.6 28.5C59.6 26.2 56.8 23.3 54.4 21.4L52.4 23.2C54.6 25.1 57.4 27.9 59.4 30.4Z ">
        </path>
        <path
            d="M3 50.6L3 50.6Q3 46.4 4.1 42.8Q5.3 39.3 7.6 36.2L7.6 36.2L12.2 36.2Q11.3 37.4 10.6 39.0Q9.8 40.6 9.2 42.5Q8.7 44.5 8.4 46.5Q8.0 48.6 8.0 50.6L8.0 50.6Q8.0 53.3 8.6 56.1Q9.1 58.8 10.1 61.2Q11.0 63.5 12.2 65.0L12.2 65.0L7.6 65.0Q5.3 62.0 4.1 58.4Q3 54.9 3 50.6ZM20.0 42.1L20.0 42.1Q19.1 42.1 18.5 41.5Q18.0 40.9 18.0 39.8L18.0 39.8Q18.0 38.8 18.5 38.2Q19.0 37.6 20.0 37.6L20.0 37.6Q21.0 37.6 21.5 38.2Q22.1 38.7 22.1 39.8L22.1 39.8Q22.1 40.9 21.5 41.5Q21.0 42.1 20.0 42.1ZM44.2 61.7L46.4 59.9C44.4 57.6 41.5 54.6 39.2 52.8L37.2 54.6C39.4 56.5 42.2 59.2 44.2 61.7ZM72.3 60.2L72.3 60.2Q71.1 60.2 70.3 59.4Q69.5 58.6 69.5 57.5L69.5 57.5Q69.5 56.4 70.3 55.6Q71.1 54.8 72.3 54.8L72.3 54.8Q73.3 54.8 74.2 55.6Q75.0 56.4 75.0 57.5L75.0 57.5Q75.0 58.3 74.6 58.9Q74.2 59.5 73.6 59.9Q73.0 60.2 72.3 60.2ZM84.0 60.0L79.0 60.0L88.6 40.9L88.6 40.7L77.4 40.7L77.4 36.7L93.7 36.7L93.7 40.8L84.0 60.0Z ">
        </path>
        <path
            d="M6.7 69.2L11.3 69.2L11.3 107.5L6.7 107.5L6.7 69.2ZM23.7 101.7L25.9 99.9C23.9 97.6 21.0 94.6 18.7 92.8L16.6 94.6C18.9 96.5 21.6 99.2 23.7 101.7ZM60.5 93.7L56.8 93.7Q56.8 91.5 57.3 90.0Q57.9 88.5 59.1 87.8Q60.2 87.0 61.7 87.0L61.7 87.0Q62.8 87.0 63.8 87.4Q64.8 87.9 66.0 89.0L66.0 89.0Q66.6 89.6 67.1 89.9Q67.6 90.2 68.1 90.2L68.1 90.2Q69.0 90.2 69.5 89.5Q70 88.9 70.0 87.5L70.0 87.5L73.7 87.5Q73.8 89.7 73.1 91.2Q72.5 92.7 71.4 93.4Q70.3 94.2 68.8 94.2L68.8 94.2Q67.6 94.2 66.7 93.7Q65.7 93.3 64.5 92.2L64.5 92.2Q63.8 91.6 63.4 91.3Q62.9 91.0 62.4 91.0L62.4 91.0Q61.5 91.0 61.0 91.6Q60.5 92.2 60.5 93.7L60.5 93.7ZM87.7 81.4L85.5 83.1C89.5 86.5 94.8 92.4 97.6 96.6L100.0 94.7C97.1 90.7 91.4 84.6 87.7 81.4Z ">
        </path>
        <path
            d="M19.3 114.5L17.5 115.3C18.6 116.8 19.7 118.8 20.5 120.5L22.4 119.6C21.6 118.1 20.1 115.7 19.3 114.5ZM23.5 112.9L21.7 113.7C22.8 115.1 23.9 117.1 24.8 118.8L26.6 117.9C25.9 116.4 24.3 114.0 23.5 112.9ZM10.5 111.9L7.2 111.9C7.4 112.8 7.5 113.9 7.5 115.1C7.5 118.4 7.2 126.6 7.2 131.3C7.2 136.5 10.4 138.4 15.0 138.4C22.0 138.4 26.1 134.4 28.3 131.4L26.5 129.2C24.2 132.5 20.9 135.8 15.0 135.8C12 135.8 9.8 134.6 9.8 131.1C9.8 126.3 10.0 118.7 10.2 115.1C10.2 114.1 10.3 112.9 10.5 111.9ZM42.9 111.7L39.6 111.6C39.8 112.6 39.9 113.7 39.9 114.9C39.9 118.3 39.6 126.4 39.6 131.1C39.6 136.3 42.8 138.2 47.4 138.2C54.4 138.2 58.5 134.2 60.7 131.2L58.9 129.0C56.6 132.3 53.3 135.6 47.5 135.6C44.4 135.6 42.2 134.4 42.2 130.8C42.2 126.1 42.4 118.5 42.6 114.9C42.6 113.8 42.7 112.7 42.9 111.7ZM64.5 119.1L75.3 119.1L75.3 122.8L64.5 122.8L64.5 119.1ZM71.8 136.6L67.0 136.6L67.0 117.9Q67.0 116.0 67.8 114.7Q68.5 113.5 69.8 112.9Q71.1 112.2 72.7 112.2L72.7 112.2Q73.9 112.2 74.8 112.4Q75.7 112.6 76.2 112.7L76.2 112.7L75.3 116.3Q75.0 116.3 74.6 116.2Q74.2 116.1 73.8 116.1L73.8 116.1Q72.7 116.1 72.3 116.6Q71.8 117.1 71.8 118.0L71.8 118.0L71.8 136.6ZM76.3 136.6L91.6 136.6L91.6 140.3L76.3 140.3L76.3 136.6ZM94.8 133.4L98.8 133.4L98.7 134.7Q98.5 136.2 98.1 137.7Q97.7 139.2 97.2 140.4Q96.8 141.6 96.5 142.3L96.5 142.3L93.4 142.3Q93.5 141.6 93.8 140.4Q94.1 139.2 94.4 137.7Q94.7 136.2 94.7 134.7L94.7 134.7L94.8 133.4ZM111.4 127.3L111.4 127.3Q111.4 131.5 110.2 135.1Q109.1 138.6 106.8 141.7L106.8 141.7L102.2 141.7Q103.0 140.5 103.8 138.9Q104.6 137.3 105.1 135.3Q105.7 133.4 106.0 131.4Q106.3 129.3 106.3 127.3L106.3 127.3Q106.3 124.6 105.8 121.8Q105.2 119.1 104.3 116.7Q103.3 114.4 102.2 112.9L102.2 112.9L106.8 112.9Q109.1 115.9 110.2 119.5Q111.4 123.0 111.4 127.3ZM140.0 113.6L137.0 112.8C136.1 117.4 133.9 122.6 131.0 126.3C128.0 129.9 123.6 133.1 118.9 134.8L121.1 137.1C125.7 135.2 130.2 131.7 133.2 128.0C135.8 124.6 137.8 119.9 139.0 116.4C139.3 115.6 139.7 114.4 140.0 113.6Z ">
        </path>
    </g>
</svg>